# xmcd
#
# Track frame offsets:
#	150
#	13417
#	25146
#	36666
#	50571
#	66958
#	75702
#	87880
#	101401
#	111073
#	123231
#	133928
#	147817
#	159213
#	170246
#	180746
#	192980
#	209106
#	220146
#	232963
#	250713
#	268375
#	280498
#	294282
#	307782
#	321477
#
# Disc length: 4457 seconds
# Revision: 0
# Processed by: cddbd v1.5.2PL0 Copyright (c) Steve Scherf et al.
# Submitted via: dBpowerAMP V12.0
#
DISCID=8c11671a
DTITLE=Various Artist - Best of Proverb and Gospel Corner Records 1959-1969
DYEAR=2016
DGENRE=Gospel
TTITLE0=Hampton-Aires of Memphis, TN - It's a Blessing
TTITLE1=Sweet Singing Cavaliers - Hide Me
TTITLE2=Hampton-Aires of Memphis, TN - Who Wouldn't Serve a God
TTITLE3=Sweet Singing Cavaliers - I Call On Jesus
TTITLE4=Page-Ettes of Seaside, CA - Hold On, Pt. 1
TTITLE5=Thomas Housley and Family of Oakland, CA - God Is a Wonder
TTITLE6=Prince Dixon - The Small One - Stop, Look and See
TTITLE7=Spiritual Five of Sacramento, CA - God's Own Set Time
TTITLE8=Prince Dixon - The Small One - April 4th, 1968
TTITLE9=Fabulous Ohio Wonders - Why Should I Feel
TTITLE10=Rev. W.E. Jasper of Little Rock, Ark - Father I Stretch My Hand to Thee
TTITLE11=Melvin Boyd and Fabulous Ohio Wonders - I'm Going to Work
TTITLE12=Madame Nellie Robinson - Viet Nam
TTITLE13=Prince Dixon and Sis. Walter Paige - Jesus, He's the One
TTITLE14=Sis. Walter Paige of Denver, Colo - The Last Say
TTITLE15="Sweet Singing" Cavaliers - Let Him Lead You
TTITLE16=Victory Five of Sacramento, CA - John
TTITLE17=Prince Dixon - Keep On Fighting
TTITLE18=Lady Bird - Never Grow Old
TTITLE19=Gospel Tones of Las Vegas, Nev - Don't Have to Worry
TTITLE20=Prince Dixon - The Small One - Something Is Wrong
TTITLE21=Gospel Revelators of San Diego, CA - Lord God
TTITLE22=Gospel Revelators of San Diego, CA - Prayer Is the Answer
TTITLE23=Angels of Joy - I Love the Lord
TTITLE24=Rev. Willie T. Snead - I'm Going Through
TTITLE25=Gospel Revelators of San Diego, CA - I'm On My Way
EXTD=
EXTT0=
EXTT1=
EXTT2=
EXTT3=
EXTT4=
EXTT5=
EXTT6=
EXTT7=
EXTT8=
EXTT9=
EXTT10=
EXTT11=
EXTT12=
EXTT13=
EXTT14=
EXTT15=
EXTT16=
EXTT17=
EXTT18=
EXTT19=
EXTT20=
EXTT21=
EXTT22=
EXTT23=
EXTT24=
EXTT25=
PLAYORDER=
